<?xml version="1.0" standalone="no"?>
<!DOCTYPE svg PUBLIC "-//W3C//DTD SVG 20010904//EN"
 "http://www.w3.org/TR/2001/REC-SVG-20010904/DTD/svg10.dtd">
<svg version="1.0" xmlns="http://www.w3.org/2000/svg"
 width="199.000000pt" height="231.000000pt" viewBox="0 0 199.000000 231.000000"
 preserveAspectRatio="xMidYMid meet">

<g transform="translate(0.000000,231.000000) scale(0.100000,-0.100000)"
fill="#ffffff" stroke="none">
<path d="M710 2194 c-93 -20 -140 -24 -250 -22 -166 3 -187 -4 -226 -75 -26
-48 -28 -62 -31 -177 -2 -93 -9 -144 -25 -200 -32 -106 -31 -299 1 -419 12
-46 25 -122 28 -168 6 -77 8 -86 35 -108 29 -25 78 -34 78 -15 0 6 -14 10 -30
10 -50 0 -70 30 -70 103 0 34 -12 109 -27 167 -36 144 -38 290 -4 410 17 59
26 126 31 220 7 152 27 212 78 231 15 6 89 10 170 10 114 -2 165 3 250 20 120
25 230 29 448 15 105 -7 158 -6 208 4 67 12 68 12 92 -12 18 -18 29 -45 39
-104 l14 -79 -5 75 c-8 128 -35 149 -169 131 -68 -9 -122 -10 -219 -2 -185 16
-285 12 -416 -15z"/>
<path d="M778 2134 c-16 -8 -28 -19 -28 -25 0 -5 11 -2 24 6 13 9 53 20 88 24
l63 8 -60 1 c-36 1 -71 -5 -87 -14z"/>
<path d="M1022 2123 c19 -3 44 -23 75 -60 84 -97 172 -130 230 -87 36 27 50
71 30 92 -15 14 -15 13 -10 -6 14 -54 -23 -92 -88 -92 -45 0 -67 15 -140 91
-54 57 -71 69 -95 68 l-29 -2 27 -4z"/>
<path d="M670 2069 c-43 -26 -60 -47 -60 -73 1 -16 4 -13 15 11 8 20 29 40 54
53 39 19 51 30 34 30 -5 0 -24 -9 -43 -21z"/>
<path d="M548 2039 c-8 -21 22 -81 42 -87 10 -2 9 2 -4 12 -10 9 -22 32 -25
53 -5 26 -9 33 -13 22z"/>
<path d="M1509 1986 c-25 -6 -70 -27 -99 -45 -33 -20 -75 -36 -105 -40 -42 -6
-46 -8 -27 -15 32 -11 67 0 127 36 69 43 118 58 186 58 70 0 96 -9 142 -49 45
-40 66 -86 76 -164 l8 -62 2 59 c2 107 -60 190 -163 221 -59 18 -85 18 -147 1z"/>
<path d="M640 1975 c-11 -13 -8 -14 17 -9 22 4 44 -2 84 -25 51 -28 164 -57
129 -32 -8 6 -28 11 -43 11 -16 0 -57 16 -91 35 -71 39 -79 41 -96 20z"/>
<path d="M616 1932 c-13 -21 -17 -89 -7 -112 l11 -25 -5 28 c-3 15 -1 46 5 68
11 39 9 61 -4 41z"/>
<path d="M535 1900 c-11 -22 -15 -53 -13 -109 3 -69 0 -83 -20 -110 -12 -17
-16 -28 -9 -25 32 12 48 62 42 132 -5 55 -3 73 13 105 11 20 16 37 11 37 -5 0
-16 -14 -24 -30z"/>
<path d="M791 1844 c52 -39 85 -54 116 -53 20 1 22 3 8 6 -11 2 -29 6 -41 8
-11 3 -38 18 -59 35 -21 16 -43 30 -48 30 -6 0 5 -12 24 -26z"/>
<path d="M660 1829 c0 -5 5 -7 10 -4 6 4 17 1 25 -5 9 -7 15 -8 15 -2 0 10
-23 22 -41 22 -5 0 -9 -5 -9 -11z"/>
<path d="M869 1759 c14 -11 44 -25 67 -32 42 -11 43 -12 26 -31 -16 -20 -16
-20 3 -6 11 8 23 19 26 23 3 4 13 5 22 1 24 -9 5 -39 -41 -63 -39 -21 -31 -28
12 -11 14 5 32 23 41 40 13 26 19 29 31 19 8 -6 17 -9 20 -6 3 3 -4 10 -15 17
-12 6 -21 17 -21 25 0 20 -36 38 -60 30 -11 -4 -20 -12 -20 -20 0 -17 -54 -4
-80 20 -9 8 -21 15 -26 15 -5 -1 2 -10 15 -21z m151 -14 c11 -13 8 -15 -19
-15 -31 0 -42 14 -18 23 20 9 24 8 37 -8z"/>
<path d="M1490 1767 c0 -4 18 -25 40 -47 72 -72 90 -202 40 -304 -13 -27 -36
-56 -54 -67 -17 -10 -26 -19 -19 -19 6 0 26 12 44 27 97 82 91 278 -11 378
-22 21 -40 36 -40 32z"/>
<path d="M597 1714 c-17 -34 -16 -54 3 -54 5 0 7 7 4 15 -4 8 -2 21 3 28 14
18 24 47 15 47 -4 0 -15 -16 -25 -36z"/>
<path d="M680 1740 c-13 -8 -13 -10 2 -10 9 0 20 5 23 10 8 13 -5 13 -25 0z"/>
<path d="M533 1619 c3 -22 13 -49 22 -59 15 -17 13 -22 -31 -91 -62 -97 -150
-292 -170 -376 -19 -80 -14 -253 7 -299 18 -36 64 -53 144 -52 l60 1 -65 7
c-83 10 -116 23 -131 52 -21 37 -18 240 4 313 25 82 110 263 158 338 l40 62
-6 -230 c-6 -214 -15 -339 -27 -375 -3 -8 -2 -10 1 -5 2 6 10 -24 17 -67 6
-42 24 -100 38 -130 27 -54 27 -51 -6 41 -23 65 -25 136 -14 506 9 279 9 280
-14 323 -12 23 -20 51 -17 62 3 11 0 20 -5 20 -7 0 -9 -16 -5 -41z"/>
<path d="M1080 1640 c8 -5 26 -10 39 -10 32 0 24 6 -19 14 -25 4 -31 3 -20 -4z"/>
<path d="M1021 1637 c-3 -24 36 -88 77 -127 148 -142 213 -241 238 -362 18
-85 30 -105 19 -33 -16 111 -54 187 -155 305 -58 67 -62 97 -6 45 38 -35 46
-31 11 5 -17 18 -48 35 -72 42 -45 11 -69 35 -96 98 -9 19 -16 31 -16 27z"/>
<path d="M675 1594 l-30 -14 30 6 c31 6 41 11 34 18 -2 2 -17 -2 -34 -10z"/>
<path d="M874 1549 c-23 -26 -78 -54 -123 -64 -31 -7 -38 -4 -58 21 -13 16
-23 23 -23 17 0 -7 9 -22 21 -34 17 -17 19 -28 14 -60 -9 -50 1 -51 15 0 8 30
16 40 38 45 15 3 37 8 49 12 18 5 23 0 32 -32 10 -37 9 -39 -31 -73 -22 -19
-51 -57 -63 -83 -25 -54 -35 -47 -35 23 0 21 -4 39 -9 39 -20 0 22 -219 66
-350 19 -58 41 -141 48 -185 9 -58 13 -69 14 -40 1 21 -8 78 -20 125 l-21 86
47 87 c46 85 48 87 83 87 64 0 134 -60 160 -137 10 -29 6 -38 -48 -125 -76
-119 -125 -176 -217 -249 -71 -57 -105 -70 -118 -49 -3 5 -11 10 -17 10 -7 0
-6 -6 2 -15 27 -33 67 -16 175 72 65 53 129 133 219 273 33 51 67 95 78 98 10
2 18 8 18 13 0 15 -13 10 -41 -17 l-28 -26 -14 33 c-31 75 -94 124 -170 132
-20 2 -39 6 -42 9 -3 3 11 43 30 89 51 118 92 156 185 172 17 3 13 5 -13 6
-72 2 -123 -43 -171 -151 -21 -48 -50 -77 -63 -65 -2 3 1 24 6 48 13 56 13 72
1 64 -5 -3 -10 -17 -10 -30 0 -43 -74 -254 -86 -243 -2 2 -10 34 -17 70 l-14
65 36 74 c26 52 45 78 66 89 17 8 32 16 34 18 3 1 -1 25 -8 52 l-13 49 34 30
c18 16 30 32 27 35 -3 3 -14 -3 -25 -15z m-9 -336 c-4 -10 -7 -27 -7 -37 1
-22 -68 -156 -80 -156 -16 0 -7 42 25 125 24 64 37 85 51 85 13 0 16 -4 11
-17z"/>
<path d="M1411 1394 c-1 -28 -8 -59 -16 -70 -22 -28 -17 -43 5 -16 25 30 34
80 21 112 -8 22 -10 18 -10 -26z"/>
<path d="M1587 1363 c-4 -3 -7 -57 -7 -118 0 -112 0 -112 -27 -124 -15 -7 -50
-15 -78 -18 -27 -3 -57 -10 -65 -15 -9 -5 5 -7 40 -3 141 15 144 19 145 171 0
63 0 114 -1 114 0 0 -4 -3 -7 -7z"/>
<path d="M1443 576 c-61 -29 -144 -112 -175 -174 -16 -35 -20 -56 -15 -103 6
-63 43 -141 77 -159 39 -21 70 -30 70 -20 0 6 -8 10 -19 10 -51 0 -104 79
-115 172 -9 69 4 100 69 175 54 61 135 105 200 107 57 1 59 16 3 16 -24 0 -66
-11 -95 -24z"/>
<path d="M1610 586 c0 -2 25 -18 55 -35 46 -26 75 -55 75 -74 0 -9 -45 6 -62
20 -9 8 -24 13 -34 11 -18 -3 -50 -78 -33 -78 5 0 9 8 9 18 0 9 4 23 9 31 7
11 13 7 24 -20 10 -21 16 -27 16 -16 1 10 -4 28 -10 40 -11 21 -10 21 15 -2
14 -14 38 -25 52 -26 37 -1 75 -47 70 -85 -3 -27 -1 -30 25 -30 35 0 37 -12 7
-33 -13 -8 -20 -18 -16 -22 8 -8 58 39 58 55 0 7 -13 17 -30 23 -16 6 -30 17
-30 24 0 7 -19 41 -42 77 -30 45 -58 73 -95 95 -49 30 -63 36 -63 27z"/>
<path d="M1534 399 c21 -17 25 -24 14 -30 -10 -7 -8 -9 6 -9 12 0 16 -5 13
-14 -3 -8 -1 -16 5 -18 19 -7 12 -84 -11 -122 -19 -30 -26 -34 -42 -26 -11 6
-19 7 -19 1 0 -11 24 -21 50 -21 19 0 95 59 86 67 -2 2 -16 -7 -31 -21 -39
-36 -46 -32 -24 12 19 39 24 76 20 157 -2 49 -2 50 -14 21 l-13 -29 -17 26
c-10 15 -25 27 -34 27 -11 0 -8 -6 11 -21z"/>
<path d="M1630 360 c0 -5 5 -10 11 -10 5 0 7 5 4 10 -3 6 -8 10 -11 10 -2 0
-4 -4 -4 -10z"/>
<path d="M1715 310 c-4 -6 3 -10 14 -10 25 0 27 6 6 13 -8 4 -17 2 -20 -3z"/>
<path d="M1650 300 c0 -5 5 -10 10 -10 6 0 10 5 10 10 0 6 -4 10 -10 10 -5 0
-10 -4 -10 -10z"/>
<path d="M1610 290 c0 -18 64 -50 101 -50 42 0 65 -20 47 -38 -18 -18 -28 -15
-21 6 4 9 -6 2 -22 -16 -59 -70 -164 -99 -240 -68 -43 18 -46 12 -4 -9 63 -33
154 -17 228 39 19 14 40 26 46 26 19 0 54 44 53 66 -2 16 -8 21 -24 20 -12 0
-20 -4 -17 -8 9 -17 -94 3 -119 22 -16 11 -28 16 -28 10z m174 -55 c-4 -8 -11
-12 -16 -9 -6 4 -5 10 3 15 19 12 19 11 13 -6z"/>
</g>
</svg>
